<?xml version="1.0" encoding="UTF-8" standalone="no"?>
<!DOCTYPE svg PUBLIC "-//W3C//DTD SVG 1.1//EN"
 "http://www.w3.org/Graphics/SVG/1.1/DTD/svg11.dtd">
<!-- Generated by graphviz version 12.2.1 (20241206.2353)
 -->
<!-- Title: dependency&#45;cruiser output Pages: 1 -->
<svg width="758pt" height="485pt"
 viewBox="0.00 0.00 758.25 485.23" xmlns="http://www.w3.org/2000/svg" xmlns:xlink="http://www.w3.org/1999/xlink">
<g id="graph0" class="graph" transform="scale(1 1) rotate(0) translate(4 481.23)">
<title>dependency&#45;cruiser output</title>
<polygon fill="white" stroke="none" points="-4,4 -4,-481.23 754.25,-481.23 754.25,4 -4,4"/>
<g id="clust1" class="cluster">
<title>cluster_src</title>
<path fill="#ffffff" stroke="black" stroke-width="2" d="M141,-26.23C141,-26.23 730.25,-26.23 730.25,-26.23 736.25,-26.23 742.25,-32.23 742.25,-38.23 742.25,-38.23 742.25,-457.23 742.25,-457.23 742.25,-463.23 736.25,-469.23 730.25,-469.23 730.25,-469.23 141,-469.23 141,-469.23 135,-469.23 129,-463.23 129,-457.23 129,-457.23 129,-38.23 129,-38.23 129,-32.23 135,-26.23 141,-26.23"/>
<text text-anchor="middle" x="435.62" y="-456.68" font-family="Helvetica,sans-Serif" font-weight="bold" font-size="9.00">src</text>
</g>
<g id="clust2" class="cluster">
<title>cluster_src/components</title>
<path fill="#ffffff" stroke="black" stroke-width="2" d="M448.38,-44.23C448.38,-44.23 505.12,-44.23 505.12,-44.23 511.12,-44.23 517.12,-50.23 517.12,-56.23 517.12,-56.23 517.12,-147.23 517.12,-147.23 517.12,-153.23 511.12,-159.23 505.12,-159.23 505.12,-159.23 448.38,-159.23 448.38,-159.23 442.38,-159.23 436.38,-153.23 436.38,-147.23 436.38,-147.23 436.38,-56.23 436.38,-56.23 436.38,-50.23 442.38,-44.23 448.38,-44.23"/>
<text text-anchor="middle" x="476.75" y="-146.68" font-family="Helvetica,sans-Serif" font-weight="bold" font-size="9.00">components</text>
</g>
<g id="clust3" class="cluster">
<title>cluster_src/navigation</title>
<path fill="#ffffff" stroke="black" stroke-width="2" d="M149,-172.23C149,-172.23 227.5,-172.23 227.5,-172.23 233.5,-172.23 239.5,-178.23 239.5,-184.23 239.5,-184.23 239.5,-213.23 239.5,-213.23 239.5,-219.23 233.5,-225.23 227.5,-225.23 227.5,-225.23 149,-225.23 149,-225.23 143,-225.23 137,-219.23 137,-213.23 137,-213.23 137,-184.23 137,-184.23 137,-178.23 143,-172.23 149,-172.23"/>
<text text-anchor="middle" x="188.25" y="-212.68" font-family="Helvetica,sans-Serif" font-weight="bold" font-size="9.00">navigation</text>
</g>
<g id="clust4" class="cluster">
<title>cluster_src/screens</title>
<path fill="#ffffff" stroke="black" stroke-width="2" d="M259.5,-126.23C259.5,-126.23 395.75,-126.23 395.75,-126.23 401.75,-126.23 407.75,-132.23 407.75,-138.23 407.75,-138.23 407.75,-322.23 407.75,-322.23 407.75,-328.23 401.75,-334.23 395.75,-334.23 395.75,-334.23 259.5,-334.23 259.5,-334.23 253.5,-334.23 247.5,-328.23 247.5,-322.23 247.5,-322.23 247.5,-138.23 247.5,-138.23 247.5,-132.23 253.5,-126.23 259.5,-126.23"/>
<text text-anchor="middle" x="327.62" y="-321.68" font-family="Helvetica,sans-Serif" font-weight="bold" font-size="9.00">screens</text>
</g>
<g id="clust5" class="cluster">
<title>cluster_src/styles</title>
<path fill="#ffffff" stroke="black" stroke-width="2" d="M427.75,-173.23C427.75,-173.23 722.25,-173.23 722.25,-173.23 728.25,-173.23 734.25,-179.23 734.25,-185.23 734.25,-185.23 734.25,-338.23 734.25,-338.23 734.25,-344.23 728.25,-350.23 722.25,-350.23 722.25,-350.23 427.75,-350.23 427.75,-350.23 421.75,-350.23 415.75,-344.23 415.75,-338.23 415.75,-338.23 415.75,-185.23 415.75,-185.23 415.75,-179.23 421.75,-173.23 427.75,-173.23"/>
<text text-anchor="middle" x="575" y="-337.68" font-family="Helvetica,sans-Serif" font-weight="bold" font-size="9.00">styles</text>
</g>
<g id="clust6" class="cluster">
<title>cluster_src/utils</title>
<path fill="#ffffff" stroke="black" stroke-width="2" d="M446.12,-358.23C446.12,-358.23 507.38,-358.23 507.38,-358.23 513.38,-358.23 519.38,-364.23 519.38,-370.23 519.38,-370.23 519.38,-430.23 519.38,-430.23 519.38,-436.23 513.38,-442.23 507.38,-442.23 507.38,-442.23 446.12,-442.23 446.12,-442.23 440.12,-442.23 434.12,-436.23 434.12,-430.23 434.12,-430.23 434.12,-370.23 434.12,-370.23 434.12,-364.23 440.12,-358.23 446.12,-358.23"/>
<text text-anchor="middle" x="476.75" y="-429.68" font-family="Helvetica,sans-Serif" font-weight="bold" font-size="9.00">utils</text>
</g>
<!-- App.js -->
<g id="node1" class="node">
<title>App.js</title>
<g id="a_node1"><a xlink:href="App.js" xlink:title="App.js">
<path fill="#ffffcc" stroke="black" d="M114.83,-198.48C114.83,-198.48 73.17,-198.48 73.17,-198.48 70.08,-198.48 67,-195.4 67,-192.31 67,-192.31 67,-186.15 67,-186.15 67,-183.06 70.08,-179.98 73.17,-179.98 73.17,-179.98 114.83,-179.98 114.83,-179.98 117.92,-179.98 121,-183.06 121,-186.15 121,-186.15 121,-192.31 121,-192.31 121,-195.4 117.92,-198.48 114.83,-198.48"/>
<text text-anchor="middle" x="94" y="-185.93" font-family="Helvetica,sans-Serif" font-size="9.00">App.js</text>
</a>
</g>
</g>
<!-- src/navigation/StackNavigator.js -->
<g id="node2" class="node">
<title>src/navigation/StackNavigator.js</title>
<g id="a_node2"><a xlink:href="src/navigation/StackNavigator.js" xlink:title="StackNavigator.js">
<path fill="#ffffcc" stroke="black" d="M225.33,-198.48C225.33,-198.48 151.17,-198.48 151.17,-198.48 148.08,-198.48 145,-195.4 145,-192.31 145,-192.31 145,-186.15 145,-186.15 145,-183.06 148.08,-179.98 151.17,-179.98 151.17,-179.98 225.33,-179.98 225.33,-179.98 228.42,-179.98 231.5,-183.06 231.5,-186.15 231.5,-186.15 231.5,-192.31 231.5,-192.31 231.5,-195.4 228.42,-198.48 225.33,-198.48"/>
<text text-anchor="start" x="153" y="-185.93" font-family="Helvetica,sans-Serif" font-size="9.00">StackNavigator.js</text>
</a>
</g>
</g>
<!-- App.js&#45;&gt;src/navigation/StackNavigator.js -->
<g id="edge1" class="edge">
<title>App.js&#45;&gt;src/navigation/StackNavigator.js</title>
<path fill="none" stroke="#000000" stroke-width="2" stroke-opacity="0.200000" d="M121.19,-189.23C128.54,-189.23 136.73,-189.23 144.77,-189.23"/>
</g>
<!-- src/components/Header.js -->
<g id="node6" class="node">
<title>src/components/Header.js</title>
<g id="a_node6"><a xlink:href="src/components/Header.js" xlink:title="Header.js">
<path fill="#ffffcc" stroke="black" d="M498.08,-132.48C498.08,-132.48 455.42,-132.48 455.42,-132.48 452.33,-132.48 449.25,-129.4 449.25,-126.31 449.25,-126.31 449.25,-120.15 449.25,-120.15 449.25,-117.06 452.33,-113.98 455.42,-113.98 455.42,-113.98 498.08,-113.98 498.08,-113.98 501.17,-113.98 504.25,-117.06 504.25,-120.15 504.25,-120.15 504.25,-126.31 504.25,-126.31 504.25,-129.4 501.17,-132.48 498.08,-132.48"/>
<text text-anchor="start" x="457.25" y="-119.93" font-family="Helvetica,sans-Serif" font-size="9.00">Header.js</text>
</a>
</g>
</g>
<!-- src/navigation/StackNavigator.js&#45;&gt;src/components/Header.js -->
<g id="edge4" class="edge">
<title>src/navigation/StackNavigator.js&#45;&gt;src/components/Header.js</title>
<path fill="none" stroke="#000000" stroke-width="2" stroke-opacity="0.200000" d="M194.12,-179.75C202.58,-164.46 221.59,-134.92 247.5,-123.23 314.68,-92.92 404.73,-106.65 448.96,-116.43"/>
</g>
<!-- src/styles/globalStyles.js -->
<g id="node7" class="node">
<title>src/styles/globalStyles.js</title>
<g id="a_node7"><a xlink:href="src/styles/globalStyles.js" xlink:title="globalStyles.js">
<path fill="#ffffcc" stroke="black" d="M632.46,-230.48C632.46,-230.48 569.54,-230.48 569.54,-230.48 566.46,-230.48 563.38,-227.4 563.38,-224.31 563.38,-224.31 563.38,-218.15 563.38,-218.15 563.38,-215.06 566.46,-211.98 569.54,-211.98 569.54,-211.98 632.46,-211.98 632.46,-211.98 635.54,-211.98 638.62,-215.06 638.62,-218.15 638.62,-218.15 638.62,-224.31 638.62,-224.31 638.62,-227.4 635.54,-230.48 632.46,-230.48"/>
<text text-anchor="start" x="571.38" y="-217.93" font-family="Helvetica,sans-Serif" font-size="9.00">globalStyles.js</text>
</a>
</g>
</g>
<!-- src/navigation/StackNavigator.js&#45;&gt;src/styles/globalStyles.js -->
<g id="edge11" class="edge">
<title>src/navigation/StackNavigator.js&#45;&gt;src/styles/globalStyles.js</title>
<path fill="none" stroke="#000000" stroke-width="2" stroke-opacity="0.200000" d="M193.16,-179.55C200.89,-161.57 219.8,-122.92 247.5,-101.23 348.47,-22.16 435.55,45.8 529.75,-41.23 556.6,-66.04 519.52,-177 542.75,-205.23 547.87,-211.45 555.18,-215.36 562.88,-217.8"/>
</g>
<!-- src/screens/AccountDataScreen.js -->
<g id="node8" class="node">
<title>src/screens/AccountDataScreen.js</title>
<g id="a_node8"><a xlink:href="src/screens/AccountDataScreen.js" xlink:title="AccountDataScreen.js">
<path fill="#ffffcc" stroke="black" d="M374.83,-245.48C374.83,-245.48 280.42,-245.48 280.42,-245.48 277.33,-245.48 274.25,-242.4 274.25,-239.31 274.25,-239.31 274.25,-233.15 274.25,-233.15 274.25,-230.06 277.33,-226.98 280.42,-226.98 280.42,-226.98 374.83,-226.98 374.83,-226.98 377.92,-226.98 381,-230.06 381,-233.15 381,-233.15 381,-239.31 381,-239.31 381,-242.4 377.92,-245.48 374.83,-245.48"/>
<text text-anchor="start" x="282.25" y="-232.93" font-family="Helvetica,sans-Serif" font-size="9.00">AccountDataScreen.js</text>
</a>
</g>
</g>
<!-- src/navigation/StackNavigator.js&#45;&gt;src/screens/AccountDataScreen.js -->
<g id="edge5" class="edge">
<title>src/navigation/StackNavigator.js&#45;&gt;src/screens/AccountDataScreen.js</title>
<path fill="none" stroke="#000000" stroke-width="2" stroke-opacity="0.200000" d="M204.51,-198.93C215.94,-205.8 232.19,-214.74 247.5,-220.23 255.94,-223.26 265.11,-225.77 274.11,-227.84"/>
</g>
<!-- src/screens/AddressScreenRegister.js -->
<g id="node9" class="node">
<title>src/screens/AddressScreenRegister.js</title>
<g id="a_node9"><a xlink:href="src/screens/AddressScreenRegister.js" xlink:title="AddressScreenRegister.js">
<path fill="#ffffcc" stroke="black" d="M382.33,-307.48C382.33,-307.48 272.92,-307.48 272.92,-307.48 269.83,-307.48 266.75,-304.4 266.75,-301.31 266.75,-301.31 266.75,-295.15 266.75,-295.15 266.75,-292.06 269.83,-288.98 272.92,-288.98 272.92,-288.98 382.33,-288.98 382.33,-288.98 385.42,-288.98 388.5,-292.06 388.5,-295.15 388.5,-295.15 388.5,-301.31 388.5,-301.31 388.5,-304.4 385.42,-307.48 382.33,-307.48"/>
<text text-anchor="start" x="274.75" y="-294.93" font-family="Helvetica,sans-Serif" font-size="9.00">AddressScreenRegister.js</text>
</a>
</g>
</g>
<!-- src/navigation/StackNavigator.js&#45;&gt;src/screens/AddressScreenRegister.js -->
<g id="edge6" class="edge">
<title>src/navigation/StackNavigator.js&#45;&gt;src/screens/AddressScreenRegister.js</title>
<path fill="none" stroke="#000000" stroke-width="2" stroke-opacity="0.200000" d="M192.39,-198.95C199.14,-218.2 216.95,-261.09 247.5,-282.23 253.26,-286.22 259.79,-289.26 266.57,-291.57"/>
</g>
<!-- src/screens/FinalRegistrationScreen.js -->
<g id="node10" class="node">
<title>src/screens/FinalRegistrationScreen.js</title>
<g id="a_node10"><a xlink:href="src/screens/FinalRegistrationScreen.js" xlink:title="FinalRegistrationScreen.js">
<path fill="#ffffcc" stroke="black" d="M383.46,-183.48C383.46,-183.48 271.79,-183.48 271.79,-183.48 268.71,-183.48 265.62,-180.4 265.62,-177.31 265.62,-177.31 265.62,-171.15 265.62,-171.15 265.62,-168.06 268.71,-164.98 271.79,-164.98 271.79,-164.98 383.46,-164.98 383.46,-164.98 386.54,-164.98 389.62,-168.06 389.62,-171.15 389.62,-171.15 389.62,-177.31 389.62,-177.31 389.62,-180.4 386.54,-183.48 383.46,-183.48"/>
<text text-anchor="start" x="273.62" y="-170.93" font-family="Helvetica,sans-Serif" font-size="9.00">FinalRegistrationScreen.js</text>
</a>
</g>
</g>
<!-- src/navigation/StackNavigator.js&#45;&gt;src/screens/FinalRegistrationScreen.js -->
<g id="edge7" class="edge">
<title>src/navigation/StackNavigator.js&#45;&gt;src/screens/FinalRegistrationScreen.js</title>
<path fill="none" stroke="#000000" stroke-width="2" stroke-opacity="0.200000" d="M231.96,-184.57C242.52,-183.41 254.03,-182.16 265.28,-180.93"/>
</g>
<!-- src/screens/HomeScreen.js -->
<g id="node11" class="node">
<title>src/screens/HomeScreen.js</title>
<g id="a_node11"><a xlink:href="src/screens/HomeScreen.js" xlink:title="HomeScreen.js">
<path fill="#ffffcc" stroke="black" d="M360.96,-276.48C360.96,-276.48 294.29,-276.48 294.29,-276.48 291.21,-276.48 288.12,-273.4 288.12,-270.31 288.12,-270.31 288.12,-264.15 288.12,-264.15 288.12,-261.06 291.21,-257.98 294.29,-257.98 294.29,-257.98 360.96,-257.98 360.96,-257.98 364.04,-257.98 367.12,-261.06 367.12,-264.15 367.12,-264.15 367.12,-270.31 367.12,-270.31 367.12,-273.4 364.04,-276.48 360.96,-276.48"/>
<text text-anchor="start" x="296.12" y="-263.93" font-family="Helvetica,sans-Serif" font-size="9.00">HomeScreen.js</text>
</a>
</g>
</g>
<!-- src/navigation/StackNavigator.js&#45;&gt;src/screens/HomeScreen.js -->
<g id="edge8" class="edge">
<title>src/navigation/StackNavigator.js&#45;&gt;src/screens/HomeScreen.js</title>
<path fill="none" stroke="#000000" stroke-width="2" stroke-opacity="0.200000" d="M195.46,-198.96C204.91,-212.9 224.27,-238.3 247.5,-251.23 259.74,-258.05 274.5,-261.98 287.93,-264.24"/>
</g>
<!-- src/screens/LoginScreen.js -->
<g id="node12" class="node">
<title>src/screens/LoginScreen.js</title>
<g id="a_node12"><a xlink:href="src/screens/LoginScreen.js" xlink:title="LoginScreen.js">
<path fill="#ffffcc" stroke="black" d="M360.21,-214.48C360.21,-214.48 295.04,-214.48 295.04,-214.48 291.96,-214.48 288.88,-211.4 288.88,-208.31 288.88,-208.31 288.88,-202.15 288.88,-202.15 288.88,-199.06 291.96,-195.98 295.04,-195.98 295.04,-195.98 360.21,-195.98 360.21,-195.98 363.29,-195.98 366.38,-199.06 366.38,-202.15 366.38,-202.15 366.38,-208.31 366.38,-208.31 366.38,-211.4 363.29,-214.48 360.21,-214.48"/>
<text text-anchor="start" x="296.88" y="-201.93" font-family="Helvetica,sans-Serif" font-size="9.00">LoginScreen.js</text>
</a>
</g>
</g>
<!-- src/navigation/StackNavigator.js&#45;&gt;src/screens/LoginScreen.js -->
<g id="edge9" class="edge">
<title>src/navigation/StackNavigator.js&#45;&gt;src/screens/LoginScreen.js</title>
<path fill="none" stroke="#000000" stroke-width="2" stroke-opacity="0.200000" d="M231.96,-194.21C250.08,-196.32 271.02,-198.75 288.59,-200.8"/>
</g>
<!-- src/screens/PersonalDataScreenRegister.js -->
<g id="node13" class="node">
<title>src/screens/PersonalDataScreenRegister.js</title>
<g id="a_node13"><a xlink:href="src/screens/PersonalDataScreenRegister.js" xlink:title="PersonalDataScreenRegister.js">
<path fill="#ffffcc" stroke="black" d="M393.58,-152.48C393.58,-152.48 261.67,-152.48 261.67,-152.48 258.58,-152.48 255.5,-149.4 255.5,-146.31 255.5,-146.31 255.5,-140.15 255.5,-140.15 255.5,-137.06 258.58,-133.98 261.67,-133.98 261.67,-133.98 393.58,-133.98 393.58,-133.98 396.67,-133.98 399.75,-137.06 399.75,-140.15 399.75,-140.15 399.75,-146.31 399.75,-146.31 399.75,-149.4 396.67,-152.48 393.58,-152.48"/>
<text text-anchor="start" x="263.5" y="-139.93" font-family="Helvetica,sans-Serif" font-size="9.00">PersonalDataScreenRegister.js</text>
</a>
</g>
</g>
<!-- src/navigation/StackNavigator.js&#45;&gt;src/screens/PersonalDataScreenRegister.js -->
<g id="edge10" class="edge">
<title>src/navigation/StackNavigator.js&#45;&gt;src/screens/PersonalDataScreenRegister.js</title>
<path fill="none" stroke="#000000" stroke-width="2" stroke-opacity="0.200000" d="M205.04,-179.58C216.46,-172.98 232.47,-164.5 247.5,-159.23 254.38,-156.82 261.72,-154.72 269.07,-152.92"/>
</g>
<!-- index.js -->
<g id="node3" class="node">
<title>index.js</title>
<g id="a_node3"><a xlink:href="index.js" xlink:title="index.js">
<path fill="#ffffcc" stroke="black" d="M47.83,-198.48C47.83,-198.48 6.17,-198.48 6.17,-198.48 3.08,-198.48 0,-195.4 0,-192.31 0,-192.31 0,-186.15 0,-186.15 0,-183.06 3.08,-179.98 6.17,-179.98 6.17,-179.98 47.83,-179.98 47.83,-179.98 50.92,-179.98 54,-183.06 54,-186.15 54,-186.15 54,-192.31 54,-192.31 54,-195.4 50.92,-198.48 47.83,-198.48"/>
<text text-anchor="middle" x="27" y="-185.93" font-family="Helvetica,sans-Serif" font-size="9.00">index.js</text>
</a>
</g>
</g>
<!-- index.js&#45;&gt;App.js -->
<g id="edge2" class="edge">
<title>index.js&#45;&gt;App.js</title>
<path fill="none" stroke="#000000" stroke-width="2" stroke-opacity="0.200000" d="M54.44,-189.23C58.52,-189.23 62.72,-189.23 66.8,-189.23"/>
</g>
<!-- src/components/CPFInput.js -->
<g id="node4" class="node">
<title>src/components/CPFInput.js</title>
<g id="a_node4"><a xlink:href="src/components/CPFInput.js" xlink:title="CPFInput.js">
<path fill="#ffffcc" stroke="black" d="M502.21,-70.48C502.21,-70.48 451.29,-70.48 451.29,-70.48 448.21,-70.48 445.12,-67.4 445.12,-64.31 445.12,-64.31 445.12,-58.15 445.12,-58.15 445.12,-55.06 448.21,-51.98 451.29,-51.98 451.29,-51.98 502.21,-51.98 502.21,-51.98 505.29,-51.98 508.38,-55.06 508.38,-58.15 508.38,-58.15 508.38,-64.31 508.38,-64.31 508.38,-67.4 505.29,-70.48 502.21,-70.48"/>
<text text-anchor="start" x="453.12" y="-57.93" font-family="Helvetica,sans-Serif" font-size="9.00">CPFInput.js</text>
</a>
</g>
</g>
<!-- src/components/DateInput.js -->
<g id="node5" class="node">
<title>src/components/DateInput.js</title>
<g id="a_node5"><a xlink:href="src/components/DateInput.js" xlink:title="DateInput.js">
<path fill="#ffffcc" stroke="black" d="M502.96,-101.48C502.96,-101.48 450.54,-101.48 450.54,-101.48 447.46,-101.48 444.38,-98.4 444.38,-95.31 444.38,-95.31 444.38,-89.15 444.38,-89.15 444.38,-86.06 447.46,-82.98 450.54,-82.98 450.54,-82.98 502.96,-82.98 502.96,-82.98 506.04,-82.98 509.12,-86.06 509.12,-89.15 509.12,-89.15 509.12,-95.31 509.12,-95.31 509.12,-98.4 506.04,-101.48 502.96,-101.48"/>
<text text-anchor="start" x="452.38" y="-88.93" font-family="Helvetica,sans-Serif" font-size="9.00">DateInput.js</text>
</a>
</g>
</g>
<!-- src/components/Header.js&#45;&gt;src/styles/globalStyles.js -->
<g id="edge3" class="edge">
<title>src/components/Header.js&#45;&gt;src/styles/globalStyles.js</title>
<path fill="none" stroke="#000000" stroke-width="2" stroke-opacity="0.200000" d="M491.84,-132.96C503.42,-141.58 519.51,-155.12 529.75,-170.23 539.06,-183.97 530.54,-193.99 542.75,-205.23 548.45,-210.47 555.72,-214.01 563.15,-216.41"/>
</g>
<!-- src/styles/colors.js -->
<g id="node21" class="node">
<title>src/styles/colors.js</title>
<g id="a_node21"><a xlink:href="src/styles/colors.js" xlink:title="colors.js">
<path fill="#ffffcc" stroke="black" d="M720.08,-241.48C720.08,-241.48 678.42,-241.48 678.42,-241.48 675.33,-241.48 672.25,-238.4 672.25,-235.31 672.25,-235.31 672.25,-229.15 672.25,-229.15 672.25,-226.06 675.33,-222.98 678.42,-222.98 678.42,-222.98 720.08,-222.98 720.08,-222.98 723.17,-222.98 726.25,-226.06 726.25,-229.15 726.25,-229.15 726.25,-235.31 726.25,-235.31 726.25,-238.4 723.17,-241.48 720.08,-241.48"/>
<text text-anchor="start" x="682.38" y="-228.93" font-family="Helvetica,sans-Serif" font-size="9.00">colors.js</text>
</a>
</g>
</g>
<!-- src/styles/globalStyles.js&#45;&gt;src/styles/colors.js -->
<g id="edge29" class="edge">
<title>src/styles/globalStyles.js&#45;&gt;src/styles/colors.js</title>
<path fill="none" stroke="#000000" stroke-width="2" stroke-opacity="0.200000" d="M638.94,-225.45C649.96,-226.71 661.82,-228.07 672.01,-229.23"/>
</g>
<!-- src/styles/accountDataScreen.js -->
<g id="node14" class="node">
<title>src/styles/accountDataScreen.js</title>
<g id="a_node14"><a xlink:href="src/styles/accountDataScreen.js" xlink:title="accountDataScreen.js">
<path fill="#ffffcc" stroke="black" d="M523.58,-261.48C523.58,-261.48 429.92,-261.48 429.92,-261.48 426.83,-261.48 423.75,-258.4 423.75,-255.31 423.75,-255.31 423.75,-249.15 423.75,-249.15 423.75,-246.06 426.83,-242.98 429.92,-242.98 429.92,-242.98 523.58,-242.98 523.58,-242.98 526.67,-242.98 529.75,-246.06 529.75,-249.15 529.75,-249.15 529.75,-255.31 529.75,-255.31 529.75,-258.4 526.67,-261.48 523.58,-261.48"/>
<text text-anchor="start" x="431.75" y="-248.93" font-family="Helvetica,sans-Serif" font-size="9.00">accountDataScreen.js</text>
</a>
</g>
</g>
<!-- src/screens/AccountDataScreen.js&#45;&gt;src/styles/accountDataScreen.js -->
<g id="edge12" class="edge">
<title>src/screens/AccountDataScreen.js&#45;&gt;src/styles/accountDataScreen.js</title>
<path fill="none" stroke="#000000" stroke-width="2" stroke-opacity="0.200000" d="M381.32,-241.96C395.01,-243.45 409.75,-245.05 423.42,-246.54"/>
</g>
<!-- src/screens/AddressScreenRegister.js&#45;&gt;src/components/Header.js -->
<g id="edge13" class="edge">
<title>src/screens/AddressScreenRegister.js&#45;&gt;src/components/Header.js</title>
<path fill="none" stroke="#000000" stroke-width="2" stroke-opacity="0.200000" d="M388.95,-294.83C396.1,-292.06 402.66,-288.02 407.75,-282.23 424.23,-263.49 404.03,-192.26 415.75,-170.23 424.64,-153.52 442.32,-140.82 456.19,-132.85"/>
</g>
<!-- src/styles/addressStyles.js -->
<g id="node15" class="node">
<title>src/styles/addressStyles.js</title>
<g id="a_node15"><a xlink:href="src/styles/addressStyles.js" xlink:title="addressStyles.js">
<path fill="#ffffcc" stroke="black" d="M511.96,-323.48C511.96,-323.48 441.54,-323.48 441.54,-323.48 438.46,-323.48 435.38,-320.4 435.38,-317.31 435.38,-317.31 435.38,-311.15 435.38,-311.15 435.38,-308.06 438.46,-304.98 441.54,-304.98 441.54,-304.98 511.96,-304.98 511.96,-304.98 515.04,-304.98 518.12,-308.06 518.12,-311.15 518.12,-311.15 518.12,-317.31 518.12,-317.31 518.12,-320.4 515.04,-323.48 511.96,-323.48"/>
<text text-anchor="start" x="443.38" y="-310.93" font-family="Helvetica,sans-Serif" font-size="9.00">addressStyles.js</text>
</a>
</g>
</g>
<!-- src/screens/AddressScreenRegister.js&#45;&gt;src/styles/addressStyles.js -->
<g id="edge14" class="edge">
<title>src/screens/AddressScreenRegister.js&#45;&gt;src/styles/addressStyles.js</title>
<path fill="none" stroke="#000000" stroke-width="2" stroke-opacity="0.200000" d="M388.89,-304.78C404.44,-306.48 420.82,-308.26 435.11,-309.81"/>
</g>
<!-- src/utils/formatters.js -->
<g id="node16" class="node">
<title>src/utils/formatters.js</title>
<g id="a_node16"><a xlink:href="src/utils/formatters.js" xlink:title="formatters.js">
<path fill="#ffffcc" stroke="black" d="M503.33,-384.48C503.33,-384.48 450.17,-384.48 450.17,-384.48 447.08,-384.48 444,-381.4 444,-378.31 444,-378.31 444,-372.15 444,-372.15 444,-369.06 447.08,-365.98 450.17,-365.98 450.17,-365.98 503.33,-365.98 503.33,-365.98 506.42,-365.98 509.5,-369.06 509.5,-372.15 509.5,-372.15 509.5,-378.31 509.5,-378.31 509.5,-381.4 506.42,-384.48 503.33,-384.48"/>
<text text-anchor="start" x="452" y="-371.93" font-family="Helvetica,sans-Serif" font-size="9.00">formatters.js</text>
</a>
</g>
</g>
<!-- src/screens/AddressScreenRegister.js&#45;&gt;src/utils/formatters.js -->
<g id="edge15" class="edge">
<title>src/screens/AddressScreenRegister.js&#45;&gt;src/utils/formatters.js</title>
<path fill="none" stroke="#000000" stroke-width="2" stroke-opacity="0.200000" d="M341.98,-307.93C358.65,-319.72 388.3,-339.73 415.75,-353.23 425.11,-357.84 435.68,-362.02 445.32,-365.48"/>
</g>
<!-- src/styles/finalRegistrationStyles.js -->
<g id="node17" class="node">
<title>src/styles/finalRegistrationStyles.js</title>
<g id="a_node17"><a xlink:href="src/styles/finalRegistrationStyles.js" xlink:title="finalRegistrationStyles.js">
<path fill="#ffffcc" stroke="black" d="M653.08,-199.48C653.08,-199.48 548.92,-199.48 548.92,-199.48 545.83,-199.48 542.75,-196.4 542.75,-193.31 542.75,-193.31 542.75,-187.15 542.75,-187.15 542.75,-184.06 545.83,-180.98 548.92,-180.98 548.92,-180.98 653.08,-180.98 653.08,-180.98 656.17,-180.98 659.25,-184.06 659.25,-187.15 659.25,-187.15 659.25,-193.31 659.25,-193.31 659.25,-196.4 656.17,-199.48 653.08,-199.48"/>
<text text-anchor="start" x="550.75" y="-186.93" font-family="Helvetica,sans-Serif" font-size="9.00">finalRegistrationStyles.js</text>
</a>
</g>
</g>
<!-- src/screens/FinalRegistrationScreen.js&#45;&gt;src/styles/finalRegistrationStyles.js -->
<g id="edge16" class="edge">
<title>src/screens/FinalRegistrationScreen.js&#45;&gt;src/styles/finalRegistrationStyles.js</title>
<path fill="none" stroke="#000000" stroke-width="2" stroke-opacity="0.200000" d="M389.98,-171.28C429.91,-170.16 483.06,-170.18 529.75,-175.23 540.17,-176.36 551.31,-178.36 561.58,-180.54"/>
</g>
<!-- src/screens/HomeScreen.js&#45;&gt;src/components/Header.js -->
<g id="edge17" class="edge">
<title>src/screens/HomeScreen.js&#45;&gt;src/components/Header.js</title>
<path fill="none" stroke="#000000" stroke-width="2" stroke-opacity="0.200000" d="M367.62,-268.59C382.22,-266.98 397.7,-262.36 407.75,-251.23 419.88,-237.81 407.04,-186.08 415.75,-170.23 424.86,-153.65 442.51,-140.92 456.32,-132.93"/>
</g>
<!-- src/styles/homeStyles.js -->
<g id="node18" class="node">
<title>src/styles/homeStyles.js</title>
<g id="a_node18"><a xlink:href="src/styles/homeStyles.js" xlink:title="homeStyles.js">
<path fill="#ffffcc" stroke="black" d="M507.08,-292.48C507.08,-292.48 446.42,-292.48 446.42,-292.48 443.33,-292.48 440.25,-289.4 440.25,-286.31 440.25,-286.31 440.25,-280.15 440.25,-280.15 440.25,-277.06 443.33,-273.98 446.42,-273.98 446.42,-273.98 507.08,-273.98 507.08,-273.98 510.17,-273.98 513.25,-277.06 513.25,-280.15 513.25,-280.15 513.25,-286.31 513.25,-286.31 513.25,-289.4 510.17,-292.48 507.08,-292.48"/>
<text text-anchor="start" x="448.25" y="-279.93" font-family="Helvetica,sans-Serif" font-size="9.00">homeStyles.js</text>
</a>
</g>
</g>
<!-- src/screens/HomeScreen.js&#45;&gt;src/styles/homeStyles.js -->
<g id="edge18" class="edge">
<title>src/screens/HomeScreen.js&#45;&gt;src/styles/homeStyles.js</title>
<path fill="none" stroke="#000000" stroke-width="2" stroke-opacity="0.200000" d="M367.28,-271.43C389.76,-273.88 417.89,-276.94 439.88,-279.33"/>
</g>
<!-- src/screens/LoginScreen.js&#45;&gt;src/components/Header.js -->
<g id="edge19" class="edge">
<title>src/screens/LoginScreen.js&#45;&gt;src/components/Header.js</title>
<path fill="none" stroke="#000000" stroke-width="2" stroke-opacity="0.200000" d="M366.85,-204.83C381,-202.92 396.36,-198.55 407.75,-189.23 414.84,-183.43 410.19,-177.51 415.75,-170.23 427.64,-154.67 445.84,-141.39 459.07,-132.96"/>
</g>
<!-- src/styles/loginStyles.js -->
<g id="node19" class="node">
<title>src/styles/loginStyles.js</title>
<g id="a_node19"><a xlink:href="src/styles/loginStyles.js" xlink:title="loginStyles.js">
<path fill="#ffffcc" stroke="black" d="M505.58,-230.48C505.58,-230.48 447.92,-230.48 447.92,-230.48 444.83,-230.48 441.75,-227.4 441.75,-224.31 441.75,-224.31 441.75,-218.15 441.75,-218.15 441.75,-215.06 444.83,-211.98 447.92,-211.98 447.92,-211.98 505.58,-211.98 505.58,-211.98 508.67,-211.98 511.75,-215.06 511.75,-218.15 511.75,-218.15 511.75,-224.31 511.75,-224.31 511.75,-227.4 508.67,-230.48 505.58,-230.48"/>
<text text-anchor="start" x="449.75" y="-217.93" font-family="Helvetica,sans-Serif" font-size="9.00">loginStyles.js</text>
</a>
</g>
</g>
<!-- src/screens/LoginScreen.js&#45;&gt;src/styles/loginStyles.js -->
<g id="edge20" class="edge">
<title>src/screens/LoginScreen.js&#45;&gt;src/styles/loginStyles.js</title>
<path fill="none" stroke="#000000" stroke-width="2" stroke-opacity="0.200000" d="M366.51,-209.35C389.67,-211.87 419.05,-215.06 441.51,-217.51"/>
</g>
<!-- src/screens/PersonalDataScreenRegister.js&#45;&gt;src/components/CPFInput.js -->
<g id="edge21" class="edge">
<title>src/screens/PersonalDataScreenRegister.js&#45;&gt;src/components/CPFInput.js</title>
<path fill="none" stroke="#000000" stroke-width="2" stroke-opacity="0.200000" d="M338.48,-133.67C353.77,-119.35 384.72,-92.39 415.75,-77.23 424.76,-72.83 435.14,-69.51 444.71,-67.08"/>
</g>
<!-- src/screens/PersonalDataScreenRegister.js&#45;&gt;src/components/DateInput.js -->
<g id="edge22" class="edge">
<title>src/screens/PersonalDataScreenRegister.js&#45;&gt;src/components/DateInput.js</title>
<path fill="none" stroke="#000000" stroke-width="2" stroke-opacity="0.200000" d="M350.55,-133.56C368.01,-126.07 393.17,-115.75 415.75,-108.23 424.85,-105.2 434.88,-102.34 444.09,-99.91"/>
</g>
<!-- src/screens/PersonalDataScreenRegister.js&#45;&gt;src/components/Header.js -->
<g id="edge23" class="edge">
<title>src/screens/PersonalDataScreenRegister.js&#45;&gt;src/components/Header.js</title>
<path fill="none" stroke="#000000" stroke-width="2" stroke-opacity="0.200000" d="M400.03,-133.52C417.46,-131.15 435.04,-128.76 448.88,-126.88"/>
</g>
<!-- src/screens/PersonalDataScreenRegister.js&#45;&gt;src/utils/formatters.js -->
<g id="edge25" class="edge">
<title>src/screens/PersonalDataScreenRegister.js&#45;&gt;src/utils/formatters.js</title>
<path fill="none" stroke="#000000" stroke-width="2" stroke-opacity="0.200000" d="M400.08,-152.29C402.89,-154.27 405.48,-156.56 407.75,-159.23 421.75,-175.64 403.03,-335.8 415.75,-353.23 422.35,-362.28 433.09,-367.62 443.66,-370.76"/>
</g>
<!-- src/styles/personalDataStyles.js -->
<g id="node20" class="node">
<title>src/styles/personalDataStyles.js</title>
<g id="a_node20"><a xlink:href="src/styles/personalDataStyles.js" xlink:title="personalDataStyles.js">
<path fill="#ffffcc" stroke="black" d="M523.21,-199.48C523.21,-199.48 430.29,-199.48 430.29,-199.48 427.21,-199.48 424.12,-196.4 424.12,-193.31 424.12,-193.31 424.12,-187.15 424.12,-187.15 424.12,-184.06 427.21,-180.98 430.29,-180.98 430.29,-180.98 523.21,-180.98 523.21,-180.98 526.29,-180.98 529.38,-184.06 529.38,-187.15 529.38,-187.15 529.38,-193.31 529.38,-193.31 529.38,-196.4 526.29,-199.48 523.21,-199.48"/>
<text text-anchor="start" x="432.12" y="-186.93" font-family="Helvetica,sans-Serif" font-size="9.00">personalDataStyles.js</text>
</a>
</g>
</g>
<!-- src/screens/PersonalDataScreenRegister.js&#45;&gt;src/styles/personalDataStyles.js -->
<g id="edge24" class="edge">
<title>src/screens/PersonalDataScreenRegister.js&#45;&gt;src/styles/personalDataStyles.js</title>
<path fill="none" stroke="#000000" stroke-width="2" stroke-opacity="0.200000" d="M384.8,-152.93C392.58,-154.76 400.42,-156.85 407.75,-159.23 417.13,-162.27 439.34,-172.63 455.84,-180.55"/>
</g>
<!-- src/styles/accountDataScreen.js&#45;&gt;src/styles/globalStyles.js -->
<g id="edge26" class="edge">
<title>src/styles/accountDataScreen.js&#45;&gt;src/styles/globalStyles.js</title>
<path fill="none" stroke="#000000" stroke-width="2" stroke-opacity="0.200000" d="M516.1,-242.51C531.08,-238.71 548.2,-234.37 563.04,-230.6"/>
</g>
<!-- src/styles/addressStyles.js&#45;&gt;src/styles/globalStyles.js -->
<g id="edge27" class="edge">
<title>src/styles/addressStyles.js&#45;&gt;src/styles/globalStyles.js</title>
<path fill="none" stroke="#000000" stroke-width="2" stroke-opacity="0.200000" d="M517.37,-304.51C521.7,-302.74 525.92,-300.66 529.75,-298.23 558.49,-280.02 582.9,-247.03 593.85,-230.79"/>
</g>
<!-- src/styles/finalRegistrationStyles.js&#45;&gt;src/styles/colors.js -->
<g id="edge28" class="edge">
<title>src/styles/finalRegistrationStyles.js&#45;&gt;src/styles/colors.js</title>
<path fill="none" stroke="#000000" stroke-width="2" stroke-opacity="0.200000" d="M642.92,-199.95C648.51,-201.77 654.09,-203.86 659.25,-206.23 668.72,-210.58 678.47,-217.08 685.85,-222.49"/>
</g>
<!-- src/styles/homeStyles.js&#45;&gt;src/styles/globalStyles.js -->
<g id="edge31" class="edge">
<title>src/styles/homeStyles.js&#45;&gt;src/styles/globalStyles.js</title>
<path fill="none" stroke="#000000" stroke-width="2" stroke-opacity="0.200000" d="M513.5,-273.69C519.04,-271.8 524.62,-269.64 529.75,-267.23 551.39,-257.07 574.13,-241.05 587.69,-230.85"/>
</g>
<!-- src/styles/homeStyles.js&#45;&gt;src/styles/colors.js -->
<g id="edge30" class="edge">
<title>src/styles/homeStyles.js&#45;&gt;src/styles/colors.js</title>
<path fill="none" stroke="#000000" stroke-width="2" stroke-opacity="0.200000" d="M513.64,-275.44C550.3,-267.41 608.85,-254.38 659.25,-242.23 663.33,-241.25 667.64,-240.18 671.84,-239.11"/>
</g>
<!-- src/styles/loginStyles.js&#45;&gt;src/styles/globalStyles.js -->
<g id="edge33" class="edge">
<title>src/styles/loginStyles.js&#45;&gt;src/styles/globalStyles.js</title>
<path fill="none" stroke="#000000" stroke-width="2" stroke-opacity="0.200000" d="M512.13,-221.23C527.95,-221.23 546.74,-221.23 562.89,-221.23"/>
</g>
<!-- src/styles/loginStyles.js&#45;&gt;src/styles/colors.js -->
<g id="edge32" class="edge">
<title>src/styles/loginStyles.js&#45;&gt;src/styles/colors.js</title>
<path fill="none" stroke="#000000" stroke-width="2" stroke-opacity="0.200000" d="M512.24,-230.72C522.03,-232.99 532.74,-235.09 542.75,-236.23 594.2,-242.09 607.54,-238.88 659.25,-236.23 663.33,-236.02 667.64,-235.69 671.84,-235.31"/>
</g>
<!-- src/styles/personalDataStyles.js&#45;&gt;src/styles/globalStyles.js -->
<g id="edge34" class="edge">
<title>src/styles/personalDataStyles.js&#45;&gt;src/styles/globalStyles.js</title>
<path fill="none" stroke="#000000" stroke-width="2" stroke-opacity="0.200000" d="M516.1,-199.95C531.08,-203.75 548.2,-208.09 563.04,-211.86"/>
</g>
<!-- src/utils/validations.js -->
<g id="node22" class="node">
<title>src/utils/validations.js</title>
<g id="a_node22"><a xlink:href="src/utils/validations.js" xlink:title="validations.js">
<path fill="#ccffcc" stroke="black" d="M505.21,-415.48C505.21,-415.48 448.29,-415.48 448.29,-415.48 445.21,-415.48 442.12,-412.4 442.12,-409.31 442.12,-409.31 442.12,-403.15 442.12,-403.15 442.12,-400.06 445.21,-396.98 448.29,-396.98 448.29,-396.98 505.21,-396.98 505.21,-396.98 508.29,-396.98 511.38,-400.06 511.38,-403.15 511.38,-403.15 511.38,-409.31 511.38,-409.31 511.38,-412.4 508.29,-415.48 505.21,-415.48"/>
<text text-anchor="start" x="450.12" y="-402.93" font-family="Helvetica,sans-Serif" font-size="9.00">validations.js</text>
</a>
</g>
</g>
</g>
</svg>
